<svg xmlns="http://www.w3.org/2000/svg" version="1.1" xmlns:xlink="http://www.w3.org/1999/xlink" xmlns:svgjs="http://svgjs.dev/svgjs" width="1000" height="1000" viewBox="0 0 1000 1000"><rect width="1000" height="1000" fill="#18171b"></rect><g transform="matrix(0.7,0,0,0.7,149.5757622777797,444.1725346759132)"><svg viewBox="0 0 396 63" data-background-color="#18171b" preserveAspectRatio="xMidYMid meet" height="159" width="1000" xmlns="http://www.w3.org/2000/svg" xmlns:xlink="http://www.w3.org/1999/xlink"><defs></defs><g id="tight-bounds" transform="matrix(1,0,0,1,0.23999733999892214,0.10045207023779312)"><svg viewBox="0 0 395.52 62.79909585952441" height="62.79909585952441" width="395.52"><g><svg viewBox="0 0 524.606842622054 83.29499241096482" height="62.79909585952441" width="395.52"><g><rect width="5.43533167587046" height="60.572697086121295" x="109.42289399364313" y="11.361147662421764" fill="#5dffed" opacity="1" stroke-width="0" stroke="transparent" fill-opacity="1" class="rect-o-0" data-fill-palette-color="primary" rx="1%" id="o-0" data-palette-color="#5dffed"></rect></g><g transform="matrix(1,0,0,1,129.08684262205406,11.511826013382262)"><svg viewBox="0 0 395.52 60.2713403842003" height="60.2713403842003" width="395.52"><g><svg viewBox="0 0 395.52 60.2713403842003" height="60.2713403842003" width="395.52"><g><svg viewBox="0 0 395.52 60.2713403842003" height="60.2713403842003" width="395.52"><g transform="matrix(1,0,0,1,0,0)"><svg width="395.52" viewBox="4 -35.099998474121094 239.47999572753906 35.29999923706055" height="60.2713403842003" data-palette-color="#5dffed"><g class="undefined-text-0" data-fill-palette-color="primary" id="text-0"><path d="M7.4 0L4 0 4-35 11.25-35Q17.4-35 20.15-33.05L20.15-33.05Q23.35-30.8 23.35-25.35L23.35-25.35Q23.35-16.25 16.35-14.25L16.35-14.25Q14.1-13.6 11.25-13.6L11.25-13.6 7.4-13.6 7.4 0ZM11-32.25L7.4-32.25 7.4-16.35 11-16.35Q15.5-16.35 17.73-18.32 19.95-20.3 19.95-24.78 19.95-29.25 17.73-30.75 15.5-32.25 11-32.25L11-32.25ZM39.5-2.4L39.5 0 30.1 0 30.1-2.4 33.1-2.75 33.1-32.2 30.35-32.55 30.35-35 39.25-35 39.25-32.55 36.5-32.2 36.5-2.75 39.5-2.4ZM59.3 0L56.15 0 56.15-32 46.25-32 46.5-35 69.15-35 68.9-32 59.3-32 59.3 0ZM96.24-24.95L95.99-31.3Q93.44-32.3 90.64-32.3L90.64-32.3Q84.99-32.3 81.52-28.15 78.04-24 78.04-16 78.04-8 81.69-4.8L81.69-4.8Q84.19-2.55 88.64-2.55L88.64-2.55Q91.49-2.55 94.37-3.2 97.24-3.85 98.29-4.45L98.29-4.45 98.99-2Q96.79-0.55 91.29 0L91.29 0Q89.69 0.2 87.92 0.2 86.14 0.2 83.74-0.38 81.34-0.95 79.29-2.7L79.29-2.7Q74.64-6.65 74.64-15.85 74.64-25.05 79.02-30.08 83.39-35.1 90.39-35.1L90.39-35.1Q94.29-35.1 97.09-33.55L97.09-33.55Q98.14-33 98.74-32.35L98.74-32.35 98.74-25.1 96.24-24.95ZM107.89 0L104.74 0 104.74-35 107.89-35 107.89-18.85 124.89-18.85 124.89-35 128.04-35 128.04 0 124.89 0 124.89-15.85 107.89-15.85 107.89 0ZM135.79 0L135.79-35 144.79-35Q155.29-35 158.49-26.2L158.49-26.2Q159.69-23 159.69-17.78 159.69-12.55 158.54-8.97 157.39-5.4 155.29-3.4 153.19-1.4 150.21-0.7 147.24 0 143.54 0L143.54 0 135.79 0ZM144.54-32.25L139.19-32.25 139.19-2.75 143.29-2.75Q145.89-2.75 148.29-3.2L148.29-3.2Q156.29-4.6 156.29-18.05L156.29-18.05Q156.29-25.6 152.79-29.2L152.79-29.2Q149.74-32.25 144.54-32.25L144.54-32.25ZM185.14-35L184.89-32 170.34-32 170.34-18.85 183.84-18.85 183.59-15.85 170.34-15.85 170.34-3 186.14-3 185.89 0 166.94 0 166.94-35 185.14-35ZM212.98-24.95L212.73-31.3Q210.18-32.3 207.38-32.3L207.38-32.3Q201.73-32.3 198.26-28.15 194.78-24 194.78-16 194.78-8 198.43-4.8L198.43-4.8Q200.93-2.55 205.38-2.55L205.38-2.55Q208.23-2.55 211.11-3.2 213.98-3.85 215.03-4.45L215.03-4.45 215.73-2Q213.53-0.55 208.03 0L208.03 0Q206.43 0.2 204.66 0.2 202.88 0.2 200.48-0.38 198.08-0.95 196.03-2.7L196.03-2.7Q191.38-6.65 191.38-15.85 191.38-25.05 195.76-30.08 200.13-35.1 207.13-35.1L207.13-35.1Q211.03-35.1 213.83-33.55L213.83-33.55Q214.88-33 215.48-32.35L215.48-32.35 215.48-25.1 212.98-24.95ZM225.13 0L221.73 0 221.73-35 225.13-35 225.13-18.3 237.18-35 241.08-35 228.83-18.55 243.48 0 239.58 0 225.13-18.3 225.13 0Z" fill="#5dffed" data-fill-palette-color="primary"></path></g></svg></g></svg></g></svg></g></svg></g><g><svg viewBox="0 0 95.19427704110265 83.29499241096482" height="83.29499241096482" width="95.19427704110265"><g><svg xmlns="http://www.w3.org/2000/svg" xmlns:xlink="http://www.w3.org/1999/xlink" version="1.1" x="0" y="0" viewBox="0 1 24 21" enable-background="new 0 0 24 24" xml:space="preserve" height="83.29499241096482" width="95.19427704110265" class="icon-icon-0" data-fill-palette-color="accent" id="icon-0"><g fill="#5dffed" data-fill-palette-color="accent"><circle cx="8" cy="6" r="4.0" fill="#5dffed" data-fill-palette-color="accent"></circle><path d="M20 6.05V3.092c0.581 0.207 1 0.757 1 1.408 0 0.277 0.225 0.501 0.5 0.501s0.5-0.224 0.5-0.5c0-1.207-0.859-2.217-2-2.45V1.5C20 1.224 19.775 1 19.5 1S19 1.224 19 1.5v0.551c-1.141 0.232-2 1.242-2 2.449s0.859 2.217 2 2.449v2.959c-0.581-0.207-1-0.756-1-1.408C18 8.225 17.775 8 17.5 8S17 8.225 17 8.5c0 1.209 0.859 2.217 2 2.449V11.5c0 0.277 0.225 0.5 0.5 0.5s0.5-0.223 0.5-0.5v-0.551c1.141-0.232 2-1.24 2-2.449C22 7.293 21.141 6.283 20 6.05zM19 5.908C18.419 5.701 18 5.15 18 4.5c0-0.401 0.156-0.777 0.439-1.061C18.6 3.279 18.792 3.164 19 3.091V5.908zM20 9.908V7.092c0.581 0.207 1 0.758 1 1.408C21 9.152 20.581 9.701 20 9.908z" fill="#5dffed" data-fill-palette-color="accent"></path><rect x="22" y="12" width="2" height="10" fill="#5dffed" data-fill-palette-color="accent"></rect><rect x="19" y="15" width="2" height="7" fill="#5dffed" data-fill-palette-color="accent"></rect><rect x="16" y="17" width="2" height="5" fill="#5dffed" data-fill-palette-color="accent"></rect><path d="M12 12l-2.4 8-1.138-5.691L10 12H6l1.539 2.309L6.4 20 4 12c-2.209 0-4 1.791-4 4v6h12v-4h3v-2h1C16 13.791 14.209 12 12 12z" fill="#5dffed" data-fill-palette-color="accent"></path><rect x="13" y="19" width="2" height="3" fill="#5dffed" data-fill-palette-color="accent"></rect></g></svg></g></svg></g></svg></g></svg><rect width="395.52" height="62.79909585952441" fill="none" stroke="none" visibility="hidden"></rect></g></svg></g></svg>